<?xml version="1.0" standalone="no"?>
<!DOCTYPE svg PUBLIC "-//W3C//DTD SVG 1.1//EN" "http://www.w3.org/Graphics/SVG/1.1/DTD/svg11.dtd" >
<svg xmlns="http://www.w3.org/2000/svg" xmlns:xlink="http://www.w3.org/1999/xlink" version="1.1">
<metadata>
Created by FontForge 20170924 at Fri Oct 28 16:36:37 2005
 By www-data
Copyright (c) This Font is designed by Ralph Oliver du Carrois, 2005. All rights reserved.
</metadata>
<defs>
<font id="Share-TechMono" horiz-adv-x="540" >
  <font-face 
    font-family="Share-TechMono"
    font-weight="400"
    font-stretch="normal"
    units-per-em="1000"
    panose-1="2 0 5 9 4 0 0 2 0 4"
    ascent="808"
    descent="-192"
    x-height="500"
    cap-height="700"
    bbox="9 -235 535 855"
    underline-thickness="75"
    underline-position="-135"
    stemh="75"
    stemv="85"
    unicode-range="U+000D-FB02"
  />
<missing-glyph 
d="M84 0v700h372v-700h-372zM159 72h222v556h-222v-556z" />
    <glyph glyph-name="fi" unicode="fi" 
d="M320 260h-100v100h100v-100z" />
    <glyph glyph-name="fl" unicode="fl" 
d="M320 260h-100v100h100v-100z" />
    <glyph glyph-name=".notdef" 
d="M84 0v700h372v-700h-372zM159 72h222v556h-222v-556z" />
    <glyph glyph-name="space" unicode=" " 
 />
    <glyph glyph-name="exclam" unicode="!" 
d="M320 0h-100v100h100v-100zM312 208h-85v492h85v-492z" />
    <glyph glyph-name="quotedbl" unicode="&#x22;" 
d="M240 610l-20 -157h-55l-20 157v90h95v-90zM395 610l-20 -157h-55l-20 157v90h95v-90z" />
    <glyph glyph-name="numbersign" unicode="#" 
d="M310 255v200h-80v-200h80zM460 180h-70v-180h-80v180h-80v-180h-80v180h-70v75h70v200h-70v75h70v170h80v-170h80v170h80v-170h70v-75h-70v-200h70v-75z" />
    <glyph glyph-name="dollar" unicode="$" 
d="M312 -110h-85v110h-105v76h142c50 0 83 35 83 75v84c0 38 -19 67 -62 67h-20c-96 0 -160 56 -160 170v28c0 93 43 147 122 164v116h85v-110h106v-76h-143c-50 0 -83 -35 -83 -75v-66c0 -40 28 -72 72 -72h20c92 0 150 -51 150 -165v-46c0 -93 -44 -148 -122 -165v-115z
" />
    <glyph glyph-name="percent" unicode="%" 
d="M527 354l-515 -73v62l515 73v-62zM289 532c0 -86 -47 -128 -122 -128h-8c-75 0 -122 42 -122 128v40c0 86 47 128 122 128h8c75 0 122 -42 122 -128v-40zM219 521v62c0 30 -15 57 -52 57h-8c-37 0 -52 -27 -52 -57v-62c0 -30 15 -57 52 -57h8c37 0 52 27 52 57zM499 128
c0 -86 -47 -128 -122 -128h-8c-75 0 -122 42 -122 128v40c0 86 47 128 122 128h8c75 0 122 -42 122 -128v-40zM429 117v62c0 30 -15 57 -52 57h-8c-37 0 -52 -27 -52 -57v-62c0 -30 15 -57 52 -57h8c37 0 52 27 52 57z" />
    <glyph glyph-name="ampersand" unicode="&#x26;" 
d="M417 0h-164c-120 0 -170 48 -170 158v126c0 60 23 100 65 123c-34 24 -55 63 -55 116v21c0 110 62 156 172 156h106v-75h-118c-50 0 -73 -21 -73 -72v-40c0 -45 33 -73 73 -73h243v-75h-79v-365zM243 365c-43 0 -73 -28 -73 -72v-145c0 -51 23 -73 74 -73h92v290h-93z
" />
    <glyph glyph-name="quoteright" unicode="&#x2019;" 
d="M332 610l-55 -157h-70l30 157v90h95v-90z" />
    <glyph glyph-name="parenleft" unicode="(" 
d="M170 505c0 169 51 252 112 315h88c-87 -106 -115 -156 -115 -313v-314c0 -157 28 -207 115 -313h-88c-61 63 -112 146 -112 315v310z" />
    <glyph glyph-name="parenright" unicode=")" 
d="M370 505v-310c0 -169 -51 -252 -112 -315h-88c87 106 115 156 115 313v314c0 157 -28 207 -115 313h88c61 -63 112 -146 112 -315z" />
    <glyph glyph-name="asterisk" unicode="*" 
d="M470 546l-147 -31l106 -123l-72 -52l-88 142l-91 -142l-70 53l107 122l-145 32l27 80l141 -57l-13 152h90l-13 -152l143 55z" />
    <glyph glyph-name="plus" unicode="+" 
d="M460 275h-150v-157h-80v157h-151v75h151v158h80v-158h150v-75z" />
    <glyph glyph-name="comma" unicode="," 
d="M340 0l-62 -140h-78l40 140v100h100v-100z" />
    <glyph glyph-name="hyphen" unicode="-" 
d="M432 275h-325v75h325v-75z" />
    <glyph glyph-name="period" unicode="." 
d="M320 0h-100v100h100v-100z" />
    <glyph glyph-name="slash" unicode="/" 
d="M490 810l-356 -920h-84l356 920h84z" />
    <glyph glyph-name="zero" unicode="0" 
d="M448 170c0 -114 -68 -170 -168 -170h-20c-100 0 -168 56 -168 170v360c0 115 68 170 168 170h20c100 0 168 -55 168 -170v-360zM177 549v-271l186 271c0 40 -33 76 -83 76h-20c-50 0 -83 -36 -83 -76zM363 151v270l-186 -270c0 -40 33 -76 83 -76h20c50 0 83 36 83 76z
" />
    <glyph glyph-name="one" unicode="1" 
d="M437 0h-325v75h131v546l-141 -52v81l131 50h95v-625h109v-75z" />
    <glyph glyph-name="two" unicode="2" 
d="M435 0h-330v88l160 228c57 81 63 90 63 163v70c0 40 -33 75 -83 75h-120v76h110c115 0 180 -56 180 -170v-42c0 -102 -20 -131 -70 -203l-148 -209h238v-76z" />
    <glyph glyph-name="three" unicode="3" 
d="M419 158c0 -110 -50 -158 -170 -158h-128v75h137c51 0 74 22 74 73v103c0 44 -30 72 -73 72h-107v75h97c40 0 73 28 73 73v82c0 51 -23 72 -73 72h-128v75h116c110 0 172 -46 172 -156v-63c0 -53 -21 -92 -55 -116c42 -23 65 -63 65 -123v-84z" />
    <glyph glyph-name="four" unicode="4" 
d="M453 156h-75v-156h-85v156h-206v86l107 458h81l-102 -471h120v228h85v-228h75v-73z" />
    <glyph glyph-name="five" unicode="5" 
d="M420 158c0 -110 -50 -158 -170 -158h-131v75h140c51 0 74 22 74 73v127c0 44 -30 72 -73 72h-131v353h276v-75h-191v-203h41c97 0 165 -45 165 -156v-108z" />
    <glyph glyph-name="six" unicode="6" 
d="M448 170c0 -114 -73 -170 -158 -170h-35c-85 0 -158 56 -158 170v360c0 114 63 170 178 170h125v-76h-135c-50 0 -83 -35 -83 -75v-109h98c113 0 168 -46 168 -160v-110zM290 365h-108v-214c0 -40 28 -76 78 -76h25c50 0 78 36 78 76v148c0 40 -23 66 -73 66z" />
    <glyph glyph-name="seven" unicode="7" 
d="M429 603l-176 -603h-89l182 625h-242v75h325v-97z" />
    <glyph glyph-name="eight" unicode="8" 
d="M454 158c0 -110 -50 -158 -170 -158h-28c-120 0 -170 48 -170 158v84c0 60 23 100 65 123c-34 24 -53 63 -53 116v63c0 110 62 156 162 156h20c100 0 162 -46 162 -156v-63c0 -53 -19 -92 -53 -116c42 -23 65 -63 65 -123v-84zM367 251c0 44 -30 72 -73 72h-48
c-43 0 -73 -28 -73 -72v-103c0 -49 20 -73 66 -73h54c51 0 74 22 74 73v103zM284 625h-36c-45 -2 -63 -24 -63 -72v-82c0 -43 28 -71 65 -73h34c40 0 71 28 71 73v82c0 51 -21 72 -71 72z" />
    <glyph glyph-name="nine" unicode="9" 
d="M96 530c0 114 73 170 158 170h35c85 0 158 -56 158 -170v-360c0 -114 -63 -170 -178 -170h-115v76h125c50 0 83 35 83 75v109h-98c-113 0 -168 46 -168 160v110zM254 335h108v214c0 40 -28 76 -78 76h-25c-50 0 -78 -36 -78 -76v-148c0 -40 23 -66 73 -66z" />
    <glyph glyph-name="colon" unicode=":" 
d="M320 0h-100v100h100v-100zM320 400h-100v100h100v-100z" />
    <glyph glyph-name="semicolon" unicode=";" 
d="M340 0l-62 -140h-78l40 140v100h100v-100zM340 400h-100v100h100v-100z" />
    <glyph glyph-name="less" unicode="&#x3c;" 
d="M460 105l-380 175v105l380 179v-92l-310 -136l310 -137v-94z" />
    <glyph glyph-name="equal" unicode="=" 
d="M460 175h-380v75h380v-75zM460 375h-380v75h380v-75z" />
    <glyph glyph-name="greater" unicode="&#x3e;" 
d="M460 280l-380 -175v94l316 137l-316 136v92l380 -179v-105z" />
    <glyph glyph-name="question" unicode="?" 
d="M409 518c0 -76 -3 -90 -71 -160l-53 -54v-96h-85v121l58 61c62 65 66 75 66 119v50c0 40 -23 65 -73 65h-125v76h115c107 0 168 -45 168 -150v-32zM293 0h-100v100h100v-100z" />
    <glyph glyph-name="at" unicode="@" 
d="M351 0h-185c-93 0 -137 39 -137 140v410c0 104 45 150 160 150h165c112 0 157 -41 157 -150v-327c0 -84 -36 -108 -100 -108c-43 0 -75 20 -79 60c-19 -21 -39 -31 -81 -31c-66 0 -97 28 -97 115v144c0 108 41 136 154 136h72v-328c0 -26 6 -41 30 -41c25 0 31 9 31 46
v344c0 49 -21 77 -77 77h-185c-59 0 -80 -26 -80 -77v-430c0 -40 17 -67 67 -67h185v-63zM260 202c38 0 52 28 52 52v228h-15c-56 0 -75 -13 -75 -73v-156c0 -27 4 -51 38 -51z" />
    <glyph glyph-name="A" unicode="A" 
d="M352 252l-82 382l-81 -382h163zM495 0h-89l-38 177h-195l-39 -177h-89l169 700h115z" />
    <glyph glyph-name="B" unicode="B" 
d="M455 158c0 -115 -50 -158 -170 -158h-200v700h188c115 0 172 -41 172 -156v-57c0 -53 -21 -92 -55 -116c42 -23 65 -63 65 -123v-90zM358 477v76c0 51 -23 72 -73 72h-113v-221h113c40 0 73 28 73 73zM368 148v109c0 44 -30 72 -73 72h-123v-254h122c51 0 74 22 74 73z
" />
    <glyph glyph-name="C" unicode="C" 
d="M431 0h-142c-115 0 -180 56 -180 170v360c0 114 65 170 180 170h142v-76h-152c-50 0 -83 -35 -83 -75v-398c0 -40 33 -75 83 -75h152v-76z" />
    <glyph glyph-name="D" unicode="D" 
d="M458 158c0 -115 -50 -158 -170 -158h-206v700h194c115 0 182 -41 182 -156v-386zM371 148v405c0 44 -30 72 -73 72h-129v-550h128c51 0 74 22 74 73z" />
    <glyph glyph-name="E" unicode="E" 
d="M437 0h-334v700h334v-73h-247v-229h222v-73h-222v-252h247v-73z" />
    <glyph glyph-name="F" unicode="F" 
d="M440 627h-247v-239h222v-73h-222v-315h-87v700h334v-73z" />
    <glyph glyph-name="G" unicode="G" 
d="M445 0h-171c-115 0 -180 56 -180 170v360c0 114 65 170 180 170h141v-76h-151c-50 0 -83 -35 -83 -75v-398c0 -40 33 -75 83 -75h98v217h-87v75h170v-368z" />
    <glyph glyph-name="H" unicode="H" 
d="M460 0h-87v322h-206v-322h-87v700h87v-304h206v304h87v-700z" />
    <glyph glyph-name="I" unicode="I" 
d="M403 0h-267v73h90v554h-90v73h267v-73h-90v-554h90v-73z" />
    <glyph glyph-name="J" unicode="J" 
d="M410 170c0 -114 -65 -170 -180 -170h-105v76h115c50 0 83 35 83 75v474h-161v75h248v-530z" />
    <glyph glyph-name="K" unicode="K" 
d="M465 0h-100l-159 315l-38 -57v-258h-87v700h87v-302l190 302h95l-193 -309z" />
    <glyph glyph-name="L" unicode="L" 
d="M425 0h-310v700h87v-624h223v-76z" />
    <glyph glyph-name="M" unicode="M" 
d="M488 0h-78v628l-100 -393h-83l-98 393v-628h-76v700h139l80 -358l81 358h135v-700z" />
    <glyph glyph-name="N" unicode="N" 
d="M460 0h-143l-157 626v-626h-81v700h142l158 -626v626h81v-700z" />
    <glyph glyph-name="O" unicode="O" 
d="M470 170c0 -114 -65 -170 -180 -170h-40c-115 0 -180 56 -180 170v360c0 114 65 170 180 170h40c115 0 180 -56 180 -170v-360zM383 151v398c0 40 -33 75 -83 75h-60c-50 0 -83 -35 -83 -75v-398c0 -40 33 -75 83 -75h60c50 0 83 35 83 75z" />
    <glyph glyph-name="P" unicode="P" 
d="M451 430c0 -110 -60 -158 -170 -158h-104v-272h-87v700h189c110 0 172 -46 172 -156v-114zM364 420v133c0 51 -23 72 -73 72h-114v-278h114c51 0 73 22 73 73z" />
    <glyph glyph-name="Q" unicode="Q" 
d="M520 -2l-57 -57l-77 77c-26 -12 -58 -18 -96 -18h-40c-115 0 -180 56 -180 170v360c0 114 65 170 180 170h40c115 0 180 -56 180 -170v-360c0 -40 -8 -73 -23 -99zM383 151v398c0 40 -33 75 -83 75h-60c-50 0 -83 -35 -83 -75v-398c0 -40 33 -75 83 -75h60
c50 0 83 35 83 75z" />
    <glyph glyph-name="R" unicode="R" 
d="M479 0h-95l-129 290h-98v-290h-87v700h188c110 0 172 -46 172 -156v-96c0 -79 -33 -123 -90 -141zM343 438v115c0 51 -23 72 -73 72h-113v-260h113c51 0 73 22 73 73z" />
    <glyph glyph-name="S" unicode="S" 
d="M439 170c0 -114 -65 -170 -180 -170h-142v76h152c50 0 83 35 83 75v104c0 38 -19 67 -62 67h-30c-96 0 -160 56 -160 170v38c0 114 65 170 180 170h143v-76h-153c-50 0 -83 -35 -83 -75v-76c0 -40 28 -72 72 -72h30c92 0 150 -51 150 -165v-66z" />
    <glyph glyph-name="T" unicode="T" 
d="M472 624h-159v-624h-87v624h-159v76h405v-76z" />
    <glyph glyph-name="U" unicode="U" 
d="M462 170c0 -114 -65 -170 -180 -170h-25c-115 0 -180 56 -180 170v530h87v-549c0 -40 33 -75 83 -75h45c50 0 83 35 83 75v549h87v-530z" />
    <glyph glyph-name="V" unicode="V" 
d="M479 700l-157 -700h-119l-147 700h88l120 -612l129 612h86z" />
    <glyph glyph-name="W" unicode="W" 
d="M485 700l-34 -700h-126l-57 284l-63 -284h-120l-34 700h74l30 -625l83 330h62l85 -330l31 625h69z" />
    <glyph glyph-name="X" unicode="X" 
d="M489 0h-98l-120 263l-126 -263h-94l174 362l-158 338h95l110 -237l114 237h93l-162 -337z" />
    <glyph glyph-name="Y" unicode="Y" 
d="M495 700l-182 -375v-325h-90v325l-179 375h96l132 -291l132 291h91z" />
    <glyph glyph-name="Z" unicode="Z" 
d="M451 612l-273 -538h263v-74h-354v88l274 538h-251v74h341v-88z" />
    <glyph glyph-name="bracketleft" unicode="[" 
d="M375 -120h-210v940h210v-75h-130v-790h130v-75z" />
    <glyph glyph-name="backslash" unicode="\" 
d="M406 -110l-356 920h84l356 -920h-84z" />
    <glyph glyph-name="bracketright" unicode="]" 
d="M375 -120h-210v75h130v790h-130v75h210v-940z" />
    <glyph glyph-name="asciicircum" unicode="^" 
d="M468 420h-91l-104 280l-114 -280h-88l144 340h114z" />
    <glyph glyph-name="underscore" unicode="_" 
d="M522 -170h-504v75h504v-75z" />
    <glyph glyph-name="quoteleft" unicode="&#x2018;" 
d="M207 542l55 157h70l-30 -157v-90h-95v90z" />
    <glyph glyph-name="a" unicode="a" 
d="M472 0h-55c-18 0 -40 12 -55 30c-14 -18 -35 -30 -61 -30h-89c-100 0 -145 35 -145 135v20c0 100 46 155 146 155h124v50c0 40 -25 65 -75 65h-155v75h145c115 0 170 -46 170 -160v-240c0 -20 13 -30 50 -30v-70zM291 75c46 0 46 30 46 50v110h-125
c-35 0 -60 -25 -60 -60v-50c0 -35 15 -50 50 -50h89z" />
    <glyph glyph-name="b" unicode="b" 
d="M453 160c0 -114 -55 -160 -170 -160h-196v700h85v-220c21 14 47 20 75 20h36c115 0 170 -45 170 -160v-180zM237 425c-50 0 -65 -35 -65 -55v-295h121c50 0 75 25 75 65v220c0 40 -25 65 -75 65h-56z" />
    <glyph glyph-name="c" unicode="c" 
d="M419 0h-129c-115 0 -170 45 -170 160v180c0 114 55 160 170 160h129v-75h-139c-50 0 -75 -25 -75 -65v-220c0 -40 25 -65 75 -65h139v-75z" />
    <glyph glyph-name="d" unicode="d" 
d="M455 0h-80v23c-23 -16 -50 -23 -80 -23h-41c-115 0 -170 45 -170 160v180c0 114 55 160 170 160h116v200h85v-700zM305 75c50 0 65 35 65 55v295h-126c-50 0 -75 -25 -75 -65v-220c0 -40 25 -65 75 -65h61z" />
    <glyph glyph-name="e" unicode="e" 
d="M413 0h-149c-115 0 -170 45 -170 160v180c0 114 45 160 160 160h47c96 0 144 -55 144 -155v-130h-266v-75c0 -40 25 -65 75 -65h159v-75zM179 360v-70h183v75c0 35 -25 60 -60 60h-58c-50 0 -65 -25 -65 -65z" />
    <glyph glyph-name="f" unicode="f" 
d="M440 625h-136c-22 0 -35 -13 -35 -30v-95h161v-75h-161v-350h121v-75h-291v75h85v350h-85v75h85v90c0 70 44 110 104 110h152v-75z" />
    <glyph glyph-name="g" unicode="g" 
d="M467 -35c0 -90 -52 -135 -167 -135h-208v75h218c50 0 72 23 72 50v32c0 30 -22 50 -72 50h-173v138c-44 24 -65 68 -65 140v25c0 114 55 160 170 160h210v-185c0 -101 -60 -160 -150 -160h-80v-43h78c115 0 167 -45 167 -135v-12zM302 230c47 0 63 41 65 62v133h-135
c-50 0 -75 -25 -75 -65v-65c0 -40 25 -65 75 -65h70z" />
    <glyph glyph-name="h" unicode="h" 
d="M172 0h-85v700h85v-220c21 14 47 20 75 20h46c105 0 160 -45 160 -160v-340h-85v360c0 40 -25 65 -65 65h-66c-48 0 -64 -32 -65 -52v-373z" />
    <glyph glyph-name="i" unicode="i" 
d="M317 610h-95v90h95v-90zM460 0h-233v425h-147v75h232v-425h148v-75z" />
    <glyph glyph-name="j" unicode="j" 
d="M137 -95h141c22 0 35 13 35 30v490h-147v75h232v-560c0 -70 -44 -110 -104 -110h-157v75zM402 610h-95v90h95v-90z" />
    <glyph glyph-name="k" unicode="k" 
d="M459 0h-105l-147 244l-26 -30v-214h-85v700h85v-378l157 178h107l-174 -197z" />
    <glyph glyph-name="l" unicode="l" 
d="M470 0h-168c-39 0 -85 24 -85 100v525h-147v75h232v-595c0 -21 9 -30 35 -30h133v-75z" />
    <glyph glyph-name="m" unicode="m" 
d="M123 0h-80v500h75v-23c17 15 38 23 62 23h6c47 0 80 -14 99 -40c24 29 55 40 87 40h6c78 0 119 -32 119 -141v-359h-80v360c0 50 -5 73 -47 73h-6c-45 0 -53 -43 -54 -66v-367h-80v360c0 57 -11 73 -46 73h-6c-45 0 -54 -35 -55 -57v-376z" />
    <glyph glyph-name="n" unicode="n" 
d="M172 0h-85v500h80v-24c22 17 50 24 80 24h46c105 0 160 -45 160 -160v-340h-85v360c0 40 -25 65 -65 65h-66c-50 0 -65 -35 -65 -55v-370z" />
    <glyph glyph-name="o" unicode="o" 
d="M456 160c0 -114 -55 -160 -170 -160h-33c-115 0 -170 46 -170 160v180c0 114 55 160 170 160h33c115 0 170 -46 170 -160v-180zM371 140v220c0 40 -25 65 -75 65h-53c-50 0 -75 -25 -75 -65v-220c0 -40 25 -65 75 -65h53c50 0 75 25 75 65z" />
    <glyph glyph-name="p" unicode="p" 
d="M172 -170h-85v670h80v-24c22 17 50 24 80 24h36c115 0 170 -45 170 -160v-180c0 -114 -55 -160 -170 -160h-111v-170zM237 425c-50 0 -65 -35 -65 -55v-295h121c50 0 75 25 75 65v220c0 40 -25 65 -75 65h-56z" />
    <glyph glyph-name="q" unicode="q" 
d="M455 -170h-85v190c-22 -14 -47 -20 -75 -20h-41c-115 0 -170 45 -170 160v180c0 114 55 160 170 160h201v-670zM305 75c50 0 65 35 65 55v295h-126c-50 0 -75 -25 -75 -65v-220c0 -40 25 -65 75 -65h61z" />
    <glyph glyph-name="r" unicode="r" 
d="M367 0h-267v75h73v350h-73v75h153v-27c22 18 48 27 80 27h103v-80h-113c-48 0 -64 -41 -65 -62v-283h109v-75z" />
    <glyph glyph-name="s" unicode="s" 
d="M422 125c0 -86 -55 -125 -150 -125h-149v75h159c35 0 55 15 55 45v53c0 30 -15 45 -43 45h-37c-92 0 -139 37 -139 127v29c0 93 55 126 150 126h134v-75h-144c-32 0 -55 -15 -55 -45v-36c0 -32 23 -45 48 -45h34c89 0 137 -44 137 -129v-45z" />
    <glyph glyph-name="t" unicode="t" 
d="M433 0h-126c-70 0 -105 50 -105 120v305h-95v75h95v120h85v-120h146v-75h-146v-310c0 -30 15 -40 45 -40h101v-75z" />
    <glyph glyph-name="u" unicode="u" 
d="M447 0h-80v23c-23 -16 -50 -23 -80 -23h-34c-105 0 -160 45 -160 160v340h85v-360c0 -40 25 -65 65 -65h54c47 0 63 31 65 52v373h85v-500z" />
    <glyph glyph-name="v" unicode="v" 
d="M476 500l-144 -500h-123l-145 500h92l117 -431l114 431h89z" />
    <glyph glyph-name="w" unicode="w" 
d="M505 500l-89 -500h-96l-48 251l-54 -251h-93l-90 500h85l57 -397l66 307h65l60 -307l57 397h80z" />
    <glyph glyph-name="x" unicode="x" 
d="M474 0h-100l-105 189l-110 -189h-94l156 258l-144 242h99l95 -168l97 168h93l-146 -238z" />
    <glyph glyph-name="y" unicode="y" 
d="M138 -95h42c31 0 46 10 54 40l14 55h-20l-165 500h92l125 -419l109 419h87l-155 -554c-28 -106 -71 -116 -135 -116h-48v75z" />
    <glyph glyph-name="z" unicode="z" 
d="M434 411l-232 -337h222v-74h-318v80l234 346h-214v74h308v-89z" />
    <glyph glyph-name="braceleft" unicode="{" 
d="M147 295v110c51 0 71 10 71 64v229c0 89 30 122 109 122h65v-70h-51c-31 0 -45 -7 -45 -37v-244c0 -70 -40 -113 -85 -120c45 -5 85 -48 85 -118v-244c0 -30 14 -37 45 -37h51v-70h-65c-79 0 -109 33 -109 122v229c0 54 -20 64 -71 64z" />
    <glyph glyph-name="bar" unicode="|" 
d="M310 -110h-80v920h80v-920z" />
    <glyph glyph-name="braceright" unicode="}" 
d="M392 405v-110c-51 0 -71 -10 -71 -64v-229c0 -89 -30 -122 -109 -122h-65v70h51c31 0 45 7 45 37v244c0 70 40 113 85 118c-45 7 -85 50 -85 120v244c0 30 -14 37 -45 37h-51v70h65c79 0 109 -33 109 -122v-229c0 -54 20 -64 71 -64z" />
    <glyph glyph-name="asciitilde" unicode="~" 
d="M100 266v80s78 35 97 35h15c24 0 108 -40 131 -40h10c12 0 87 36 87 36v-80s-71 -35 -88 -35h-15c-13 0 -110 40 -130 40h-10c-14 0 -97 -36 -97 -36z" />
    <glyph glyph-name="exclamdown" unicode="&#xa1;" 
d="M220 500h100v-100h-100v100zM228 292h85v-492h-85v492z" />
    <glyph glyph-name="cent" unicode="&#xa2;" 
d="M340 -110h-80v110c-95 8 -140 54 -140 159v180c0 103 45 150 140 158v103h80v-101h79v-75h-139c-50 0 -75 -25 -75 -65v-220c0 -40 25 -65 75 -65h139v-75h-79v-109z" />
    <glyph glyph-name="sterling" unicode="&#xa3;" 
d="M92 340v73h70v117c0 114 65 170 180 170h97v-76h-107c-50 0 -83 -35 -83 -75v-136h128v-73h-128v-267h198v-73h-355v73h70v267h-70z" />
    <glyph glyph-name="fraction" unicode="&#x2044;" 
d="M435 810l-256 -920h-74l256 920h74z" />
    <glyph glyph-name="yen" unicode="&#xa5;" 
d="M444 115h-130v-115h-90v115h-130v75h130v75h-130v75h127l-166 360h96l122 -273l121 273h91l-169 -360h128v-75h-130v-75h130v-75z" />
    <glyph glyph-name="florin" unicode="&#x192;" 
d="M481 625h-136c-22 0 -35 -13 -35 -30v-95h161v-75h-161v-485c0 -70 -44 -110 -104 -110h-127v75h111c22 0 35 13 35 30v490h-85v75h85v90c0 70 44 110 104 110h152v-75z" />
    <glyph glyph-name="section" unicode="&#xa7;" 
d="M113 355c0 49 19 89 44 107c-18 19 -30 50 -30 88v10c0 100 55 140 150 140h124v-75h-134c-30 0 -55 -15 -55 -45v-40c0 -32 20 -45 48 -45h29c89 0 137 -45 137 -145v-5c0 -50 -19 -85 -44 -107c19 -14 30 -50 30 -88v-10c0 -100 -55 -140 -150 -140h-124v75h134
c30 0 55 15 55 45v40c0 29 -15 45 -44 45h-33c-89 0 -137 45 -137 145v5zM289 420h-56c-22 0 -35 -15 -35 -45v-45c0 -28 15 -50 53 -50h55c21 0 35 15 35 45v45c0 27 -8 50 -52 50z" />
    <glyph glyph-name="currency" unicode="&#xa4;" 
d="M14 103l71 71c-8 21 -12 47 -12 78v98c0 31 4 58 12 79l-71 72l57 57l68 -68c26 14 61 20 104 20h53c43 0 78 -7 104 -21l69 69l57 -57l-73 -73c9 -21 13 -47 13 -78v-98c0 -31 -4 -56 -12 -77l72 -72l-57 -57l-67 67c-27 -14 -62 -21 -106 -21h-53c-44 0 -79 6 -105 21
l-67 -67zM381 232v138c0 40 -25 65 -75 65h-73c-50 0 -75 -25 -75 -65v-138c0 -40 25 -65 75 -65h73c50 0 75 25 75 65z" />
    <glyph glyph-name="quotesingle" unicode="'" 
d="M317 610l-20 -157h-55l-20 157v90h95v-90z" />
    <glyph glyph-name="quotedblleft" unicode="&#x201c;" 
d="M130 542l55 157h70l-30 -157v-90h-95v90zM285 542l55 157h70l-30 -157v-90h-95v90z" />
    <glyph glyph-name="guillemotleft" unicode="&#xab;" 
d="M267 92h-66l-89 207l89 207h66l-63 -207zM427 92h-66l-89 207l89 207h66l-63 -207z" />
    <glyph glyph-name="guilsinglleft" unicode="&#x2039;" 
d="M347 92h-66l-89 207l89 207h66l-63 -207z" />
    <glyph glyph-name="guilsinglright" unicode="&#x203a;" 
d="M258 92h-66l63 207l-63 207h66l89 -207z" />
    <glyph glyph-name="endash" unicode="&#x2013;" 
d="M460 275h-380v75h380v-75z" />
    <glyph glyph-name="dagger" unicode="&#x2020;" 
d="M310 0h-80v425h-141v75h141v200h80v-200h140v-75h-140v-425z" />
    <glyph glyph-name="daggerdbl" unicode="&#x2021;" 
d="M310 0h-80v210h-141v75h141v140h-141v75h141v200h80v-200h140v-75h-140v-140h140v-75h-140v-210z" />
    <glyph glyph-name="periodcentered" unicode="&#xb7;" 
d="M320 260h-100v100h100v-100z" />
    <glyph glyph-name="paragraph" unicode="&#xb6;" 
d="M318 0h-83v374h-6c-115 0 -167 38 -167 153v13c0 114 52 160 167 160h89v-70h-100c-50 0 -75 -30 -75 -70v-53c0 -40 25 -65 75 -65h100v-442zM453 0h-80v700h80v-700z" />
    <glyph glyph-name="bullet" unicode="&#x2022;" 
d="M345 235h-150v155h150v-155z" />
    <glyph glyph-name="quotesinglbase" unicode="&#x201a;" 
d="M332 0l-55 -157h-70l30 157v90h95v-90z" />
    <glyph glyph-name="quotedblbase" unicode="&#x201e;" 
d="M410 0l-55 -157h-70l30 157v90h95v-90zM255 0l-55 -157h-70l30 157v90h95v-90z" />
    <glyph glyph-name="quotedblright" unicode="&#x201d;" 
d="M410 610l-55 -157h-70l30 157v90h95v-90zM255 610l-55 -157h-70l30 157v90h95v-90z" />
    <glyph glyph-name="guillemotright" unicode="&#xbb;" 
d="M338 92h-66l63 207l-63 207h66l89 -207zM178 92h-66l63 207l-63 207h66l89 -207z" />
    <glyph glyph-name="ellipsis" unicode="&#x2026;" 
d="M140 0h-100v100h100v-100zM320 0h-100v100h100v-100zM500 0h-100v100h100v-100z" />
    <glyph glyph-name="perthousand" unicode="&#x2030;" 
d="M529 374l-515 -73v62l515 73v-62zM261 532c0 -86 -47 -128 -122 -128h-8c-75 0 -122 42 -122 128v40c0 86 47 128 122 128h8c75 0 122 -42 122 -128v-40zM191 521v62c0 30 -15 57 -52 57h-8c-37 0 -52 -27 -52 -57v-62c0 -30 15 -57 52 -57h8c37 0 52 27 52 57zM261 128
c0 -86 -47 -128 -122 -128h-8c-75 0 -122 42 -122 128v40c0 86 47 128 122 128h8c75 0 122 -42 122 -128v-40zM191 117v62c0 30 -15 57 -52 57h-8c-37 0 -52 -27 -52 -57v-62c0 -30 15 -57 52 -57h8c37 0 52 27 52 57zM531 128c0 -86 -47 -128 -122 -128h-8
c-75 0 -122 42 -122 128v40c0 86 47 128 122 128h8c75 0 122 -42 122 -128v-40zM461 117v62c0 30 -15 57 -52 57h-8c-37 0 -52 -27 -52 -57v-62c0 -30 15 -57 52 -57h8c37 0 52 27 52 57z" />
    <glyph glyph-name="questiondown" unicode="&#xbf;" 
d="M247 500h100v-100h-100v100zM131 -18c0 77 3 90 71 160l53 54v96h85v-121l-58 -61c-61 -64 -66 -75 -66 -119v-50c0 -40 23 -65 73 -65h125v-76h-115c-107 0 -168 45 -168 150v32z" />
    <glyph glyph-name="grave" unicode="`" 
d="M371 580h-86l-122 135h104z" />
    <glyph glyph-name="acute" unicode="&#xb4;" 
d="M254 580h-86l104 135h104z" />
    <glyph glyph-name="circumflex" unicode="&#x2c6;" 
d="M426 580h-97l-60 75l-60 -75h-96l112 135h88z" />
    <glyph glyph-name="tilde" unicode="&#x2dc;" 
d="M130 595v72s58 33 77 33h15c24 0 88 -40 111 -40h10c12 0 67 36 67 36v-72s-51 -33 -68 -33h-15c-13 0 -90 40 -110 40h-10c-14 0 -77 -36 -77 -36z" />
    <glyph glyph-name="macron" unicode="&#xaf;" 
d="M397 605h-255v70h255v-70z" />
    <glyph glyph-name="breve" unicode="&#x2d8;" 
d="M280 649c44 0 50 30 50 66h82c0 -55 -27 -130 -132 -130h-20c-105 0 -132 75 -132 130h82c0 -36 6 -66 50 -66h20z" />
    <glyph glyph-name="dotaccent" unicode="&#x2d9;" 
d="M312 615h-85v85h85v-85z" />
    <glyph glyph-name="dieresis" unicode="&#xa8;" 
d="M412 595h-85v80h85v-80zM212 595h-85v80h85v-80z" />
    <glyph glyph-name="ring" unicode="&#x2da;" 
d="M362 633c0 -57 -39 -85 -89 -85h-6c-50 0 -89 28 -89 85v29c0 58 39 85 89 85h6c50 0 89 -27 89 -85v-29zM305 632v31c0 20 -7 38 -32 38h-6c-25 0 -34 -18 -34 -38v-31c0 -20 9 -38 34 -38h6c25 0 32 18 32 38z" />
    <glyph glyph-name="cedilla" unicode="&#xb8;" 
d="M268 -200h-85v64h67c21 0 33 9 33 31c0 23 -12 29 -35 29h-49v126h70v-71c58 0 87 -15 87 -84c0 -88 -53 -95 -88 -95z" />
    <glyph glyph-name="hungarumlaut" unicode="&#x2dd;" 
d="M295 745l-127 -147h-91l103 147h115zM465 745l-127 -147h-91l103 147h115z" />
    <glyph glyph-name="ogonek" unicode="&#x2db;" 
d="M358 -180h-89c-35 0 -88 7 -88 95v145h74v-145c0 -22 11 -28 32 -28h71v-67z" />
    <glyph glyph-name="caron" unicode="&#x2c7;" 
d="M113 714h97l60 -75l60 75h96l-112 -135h-88z" />
    <glyph glyph-name="emdash" unicode="&#x2014;" 
d="M507 275h-475v75h475v-75z" />
    <glyph glyph-name="AE" unicode="&#xc6;" 
d="M518 0h-211l-15 177h-151l-42 -177h-84l176 700h307v-73h-173l23 -229h145v-73h-137l25 -252h137v-73zM247 627l-88 -375h124z" />
    <glyph glyph-name="ordfeminine" unicode="&#xaa;" 
d="M414 324h-45c-12 0 -29 7 -40 20c-10 -12 -25 -20 -43 -20h-52c-75 0 -109 27 -109 102v15c0 75 35 116 110 116h74v38c0 30 -15 44 -53 44h-101v61h94c86 0 128 -35 128 -120v-181c0 -15 9 -22 37 -22v-53zM398 0h-251v75h251v-75zM274 383c35 0 35 22 35 37v79h-71
c-26 0 -45 -19 -45 -45v-32c0 -26 11 -39 37 -39h44z" />
    <glyph glyph-name="Lslash" unicode="&#x141;" 
d="M475 0h-310v343l-90 -43v80l90 43v277h87v-235l113 55v-80l-113 -55v-309h223v-76z" />
    <glyph glyph-name="Oslash" unicode="&#xd8;" 
d="M470 170c0 -114 -65 -170 -180 -170h-40c-14 0 -27 0 -39 2l-26 -93h-76l32 115c-46 27 -71 75 -71 146v360c0 114 65 170 180 170h40c13 0 25 -1 37 -2l26 93h76l-32 -115c47 -26 73 -75 73 -146v-360zM383 151v398c0 13 -4 26 -11 37l-141 -510h69c50 0 83 35 83 75z
M157 151c0 -13 3 -25 9 -35l140 508h-66c-50 0 -83 -35 -83 -75v-398z" />
    <glyph glyph-name="OE" unicode="&#x152;" 
d="M523 0h-317c-115 0 -180 56 -180 170v360c0 114 65 170 180 170h317v-73h-176c14 -26 24 -58 24 -97v-132h137v-73h-137v-155c0 -39 -10 -72 -24 -97h176v-73zM284 151v398c0 40 -33 75 -83 75h-5c-50 0 -83 -35 -83 -75v-398c0 -40 33 -75 83 -75h5c50 0 83 35 83 75z
" />
    <glyph glyph-name="ordmasculine" unicode="&#xba;" 
d="M408 0h-276v75h276v-75zM400 446c0 -85 -41 -120 -127 -120h-10c-87 0 -128 35 -128 120v136c0 85 41 120 128 120h10c86 0 127 -35 127 -120v-136zM332 435v158c0 30 -18 48 -56 48h-17c-37 0 -56 -18 -56 -48v-158c0 -30 19 -48 56 -48h17c38 0 56 18 56 48z" />
    <glyph glyph-name="ae" unicode="&#xe6;" 
d="M484 0h-89c-63 0 -103 12 -122 47c-13 -24 -45 -47 -99 -47h-14c-85 0 -135 35 -135 135v12c0 100 41 155 141 155h66v58c0 40 -17 65 -67 65h-105v75h95c63 0 92 -13 120 -37c25 24 45 37 100 37h7c96 0 134 -55 134 -155v-116h-201v-97c2 -37 22 -59 70 -59h99v-73z
M232 123v106h-69c-35 0 -55 -27 -55 -62v-44c0 -35 15 -50 50 -50h26c46 0 48 30 48 50zM315 362v-60h120v65c0 35 -17 60 -52 60h-8c-50 0 -60 -25 -60 -65z" />
    <glyph glyph-name="dotlessi" unicode="&#x131;" 
d="M460 0h-233v425h-147v75h232v-425h148v-75z" />
    <glyph glyph-name="lslash" unicode="&#x142;" 
d="M470 0h-168c-39 0 -85 24 -85 100v223l-82 -23v78l82 24v223h-147v75h232v-274l104 31v-79l-104 -30v-243c0 -21 9 -30 35 -30h133v-75z" />
    <glyph glyph-name="oslash" unicode="&#xf8;" 
d="M456 160c0 -114 -55 -160 -170 -160h-53l-27 -89h-78l31 104c-51 22 -76 68 -76 145v180c0 114 55 160 170 160h33c7 0 14 0 20 -1l28 90h77l-32 -105c52 -22 77 -67 77 -144v-180zM168 140c0 -19 5 -34 15 -45l101 330h-41c-50 0 -75 -25 -75 -65v-220zM371 140v220
c0 18 -5 33 -16 44l-100 -329h41c50 0 75 25 75 65z" />
    <glyph glyph-name="oe" unicode="&#x153;" 
d="M489 0h-92c-66 0 -97 13 -117 39c-21 -23 -44 -39 -104 -39h-3c-104 0 -147 47 -147 155v190c0 114 44 155 147 155h3c57 0 80 -18 102 -39c19 23 48 39 105 39h1c90 0 132 -45 132 -145v-140h-193v-77c0 -40 22 -65 72 -65h94v-73zM240 138v224c0 40 -15 65 -54 65h-23
c-39 0 -54 -25 -54 -65v-224c0 -40 14 -65 54 -65h23c40 0 54 25 54 65zM323 362v-74h112v79c0 35 -11 60 -52 60h-3c-48 0 -57 -25 -57 -65z" />
    <glyph glyph-name="germandbls" unicode="&#xdf;" 
d="M163 0h-85v560c0 100 72 140 150 140h39c115 0 170 -45 170 -160v-125h-78c-41 0 -55 -15 -55 -45v-15c0 -32 18 -45 43 -45c74 0 119 -46 119 -120v-65c0 -70 -43 -125 -138 -125h-112v75h118c30 0 47 15 47 45v70c0 27 -11 45 -46 45c-67 0 -116 47 -116 121v10
c0 90 53 116 133 120v74c0 40 -25 65 -75 65h-54c-50 0 -60 -35 -60 -55v-570z" />
    <glyph glyph-name="onesuperior" unicode="&#xb9;" 
d="M393 205h-239v64h91v364l-99 -39v68l91 38h82v-431h74v-64z" />
    <glyph glyph-name="logicalnot" unicode="&#xac;" 
d="M477 106h-85v169h-330v75h415v-244z" />
    <glyph glyph-name="mu" unicode="&#xb5;" 
d="M188 -170h-85v670h85v-360c0 -40 25 -65 65 -65h34c50 0 65 35 65 55v370h85v-500h-80v23c-23 -16 -50 -23 -80 -23h-14c-29 0 -54 3 -75 10v-180z" />
    <glyph glyph-name="trademark" unicode="&#x2122;" 
d="M524 194h-66v420l-53 -253h-53l-54 253v-420h-65v447h-65v-447h-68v447h-86v59h325l42 -207l40 207h103v-506z" />
    <glyph glyph-name="Eth" unicode="&#xd0;" 
d="M467 158c0 -115 -50 -158 -170 -158h-206v325h-57v75h57v300h194c115 0 182 -41 182 -156v-386zM380 148v405c0 44 -30 72 -73 72h-129v-225h116v-75h-116v-250h128c51 0 74 22 74 73z" />
    <glyph glyph-name="onehalf" unicode="&#xbd;" 
d="M185 205h-156v64h48v361l-66 -39v71l68 38h72v-431h34v-64zM535 0h-170v73l78 173c13 28 14 43 14 100v46c0 23 -11 39 -41 39h-36v64h29c98 0 121 -30 121 -109v-33c0 -89 -2 -107 -18 -137l-71 -152h94v-64zM453 810l-256 -920h-74l242 920h88z" />
    <glyph glyph-name="plusminus" unicode="&#xb1;" 
d="M460 275h-150v-132h-80v132h-150v75h150v158h80v-158h150v-75zM460 0h-380v75h380v-75z" />
    <glyph glyph-name="Thorn" unicode="&#xde;" 
d="M455 300c0 -110 -60 -158 -170 -158h-104v-142h-87v700h87v-130h102c110 0 172 -46 172 -156v-114zM368 290v133c0 51 -23 72 -73 72h-114v-278h114c51 0 73 22 73 73z" />
    <glyph glyph-name="onequarter" unicode="&#xbc;" 
d="M185 205h-156v64h48v361l-66 -39v71l68 38h72v-431h34v-64zM528 117h-30v-117h-70v117h-101v74l54 304h69l-62 -314h36l27 143h47v-143h30v-64zM449 810l-256 -920h-74l256 920h74z" />
    <glyph glyph-name="divide" unicode="&#xf7;" 
d="M460 275h-380v75h380v-75zM320 65h-100v100h100v-100zM320 460h-100v100h100v-100z" />
    <glyph glyph-name="brokenbar" unicode="&#xa6;" 
d="M310 -110h-80v360h80v-360zM310 450h-80v360h80v-360z" />
    <glyph glyph-name="degree" unicode="&#xb0;" 
d="M411 516c0 -80 -57 -119 -127 -119h-28c-70 0 -127 39 -127 119v66c0 81 57 119 127 119h28c70 0 127 -38 127 -119v-66zM342 513v72c0 28 -23 54 -58 54h-28c-35 0 -58 -26 -58 -54v-72c0 -28 23 -54 58 -54h28c35 0 58 26 58 54z" />
    <glyph glyph-name="thorn" unicode="&#xfe;" 
d="M182 -170h-85v870h85v-870zM453 160c0 -114 -55 -160 -170 -160h-131v75h141c50 0 75 25 75 65v220c0 40 -25 65 -75 65h-46c-50 0 -65 -35 -65 -55l-57 29c23 72 72 101 132 101h26c115 0 170 -45 170 -160v-180z" />
    <glyph glyph-name="threequarters" unicode="&#xbe;" 
d="M198 324c0 -83 -30 -119 -121 -119h-56v62h53c35 0 54 12 54 50v59c0 33 -21 52 -53 52h-31v60h23c31 0 53 18 53 52v46c0 39 -15 52 -53 52h-46v62h47c83 0 123 -35 123 -117v-35c0 -39 -18 -69 -44 -87c32 -17 51 -47 51 -92v-45zM528 117h-30v-117h-70v117h-101v74
l54 304h69l-62 -314h36l27 143h47v-143h30v-64zM443 810l-256 -920h-74l256 920h74z" />
    <glyph glyph-name="twosuperior" unicode="&#xb2;" 
d="M390 205h-240v73l112 153c42 57 50 68 50 120v36c0 30 -17 49 -61 49h-86v64h79c100 0 141 -37 141 -119v-23c0 -83 -14 -96 -54 -150l-103 -139h162v-64z" />
    <glyph glyph-name="registered" unicode="&#xae;" 
d="M515 170c0 -114 -63 -170 -163 -170h-164c-100 0 -163 56 -163 170v360c0 115 63 170 163 170h164c100 0 163 -55 163 -170v-360zM443 147v405c0 40 -31 84 -91 84h-164c-61 0 -91 -44 -91 -84v-405c0 -40 30 -84 91 -84h164c62 0 91 44 91 84zM409 159h-61l-78 158h-45
v-158h-56v384h107c66 0 104 -26 104 -86v-53c0 -44 -20 -68 -54 -78zM319 403v54c0 28 -13 39 -43 39h-51v-133h51c30 0 43 12 43 40z" />
    <glyph glyph-name="minus" unicode="&#x2212;" 
d="M460 275h-380v75h380v-75z" />
    <glyph glyph-name="eth" unicode="&#xf0;" 
d="M303 622l-33 -56h-82l35 60h-76v74h119l30 50h82l-36 -60c67 -21 103 -74 103 -160v-360c0 -114 -73 -170 -158 -170h-35c-85 0 -158 56 -158 170v130c0 114 55 160 168 160h98v89c0 32 -22 63 -57 73zM360 385h-108c-50 0 -73 -26 -73 -66v-168c0 -40 28 -76 78 -76h25
c50 0 78 36 78 76v234z" />
    <glyph glyph-name="multiply" unicode="&#xd7;" 
d="M387 137l-117 116l-117 -116l-56 56l116 117l-116 117l56 56l117 -116l117 116l56 -56l-116 -117l116 -117z" />
    <glyph glyph-name="threesuperior" unicode="&#xb3;" 
d="M381 324c0 -83 -36 -119 -127 -119h-96v64h93c35 0 56 12 56 50v55c0 33 -23 52 -55 52h-71v64h63c31 0 55 18 55 52v42c0 39 -17 52 -55 52h-86v64h87c83 0 129 -35 129 -117v-35c0 -39 -18 -69 -44 -87c32 -17 51 -47 51 -92v-45z" />
    <glyph glyph-name="copyright" unicode="&#xa9;" 
d="M357 157h-74c-69 0 -108 31 -108 94v198c0 63 39 94 108 94h75v-51h-80c-30 0 -46 -20 -46 -42v-200c0 -22 16 -42 46 -42h79v-51zM515 170c0 -114 -63 -170 -163 -170h-164c-100 0 -163 56 -163 170v360c0 115 63 170 163 170h164c100 0 163 -55 163 -170v-360zM443 147
v405c0 40 -31 84 -91 84h-164c-61 0 -91 -44 -91 -84v-405c0 -40 30 -84 91 -84h164c62 0 91 44 91 84z" />
    <glyph glyph-name="Aacute" unicode="&#xc1;" 
d="M264 726h-83l104 115h111zM352 252l-82 382l-89 -382h171zM495 0h-89l-38 177h-195l-39 -177h-89l169 700h115z" />
    <glyph glyph-name="Acircumflex" unicode="&#xc2;" 
d="M426 730h-97l-60 64l-60 -64h-96l110 115h92zM352 252l-82 382l-81 -382h163zM495 0h-89l-38 177h-195l-39 -177h-89l169 700h115z" />
    <glyph glyph-name="Adieresis" unicode="&#xc4;" 
d="M352 252l-82 382l-81 -382h163zM495 0h-89l-38 177h-195l-39 -177h-89l169 700h115zM417 735h-85v80h74zM217 735h-85v80h85v-80z" />
    <glyph glyph-name="Agrave" unicode="&#xc0;" 
d="M357 726h-83l-132 115h111zM352 252l-82 382l-81 -382h163zM495 0h-89l-38 177h-195l-39 -177h-89l169 700h115z" />
    <glyph glyph-name="Aring" unicode="&#xc5;" 
d="M363 741c-1 -30 -10 -52 -28 -66l160 -675h-89l-38 177h-195l-39 -177h-89l163 674c-18 14 -29 36 -29 67v29c0 58 39 85 89 85h6c50 0 89 -27 89 -85v-29zM352 252l-82 382l-81 -382h163zM306 740v31c0 20 -7 38 -32 38h-6c-25 0 -34 -18 -34 -38v-31
c0 -20 9 -38 34 -38h6c25 0 32 18 32 38z" />
    <glyph glyph-name="Atilde" unicode="&#xc3;" 
d="M352 252l-82 382l-81 -382h163zM495 0h-89l-38 177h-195l-39 -177h-89l169 700h115zM135 735v72s58 33 77 33h15c24 0 88 -40 111 -40h10c12 0 67 36 67 36v-72s-51 -33 -68 -33h-15c-13 0 -90 40 -110 40h-10c-14 0 -77 -36 -77 -36z" />
    <glyph glyph-name="Ccedilla" unicode="&#xc7;" 
d="M321 -200h-85v64h67c21 0 33 9 33 31c0 23 -12 29 -35 29h-49v78c-92 11 -143 67 -143 168v360c0 114 65 170 180 170h142v-76h-152c-50 0 -83 -35 -83 -75v-398c0 -40 33 -75 83 -75h152v-76h-109v-21c58 0 87 -15 87 -84c0 -88 -53 -95 -88 -95z" />
    <glyph glyph-name="Eacute" unicode="&#xc9;" 
d="M265 726h-83l104 115h111zM437 0h-334v700h334v-73h-247v-229h222v-73h-222v-252h247v-73z" />
    <glyph glyph-name="Ecircumflex" unicode="&#xca;" 
d="M427 730h-97l-60 64l-60 -64h-96l110 115h92zM437 0h-334v700h334v-73h-247v-229h222v-73h-222v-252h247v-73z" />
    <glyph glyph-name="Edieresis" unicode="&#xcb;" 
d="M437 0h-334v700h334v-73h-247v-229h222v-73h-222v-252h247v-73zM412 735h-85v80h85v-80zM212 735h-85v80h85v-80z" />
    <glyph glyph-name="Egrave" unicode="&#xc8;" 
d="M352 726h-83l-132 115h111zM437 0h-334v700h334v-73h-247v-229h222v-73h-222v-252h247v-73z" />
    <glyph glyph-name="Iacute" unicode="&#xcd;" 
d="M260 726h-83l104 115h111zM403 0h-267v73h90v554h-90v73h267v-73h-90v-554h90v-73z" />
    <glyph glyph-name="Icircumflex" unicode="&#xce;" 
d="M427 730h-97l-60 64l-60 -64h-96l110 115h92zM404 0h-267v73h90v554h-90v73h267v-73h-90v-554h90v-73z" />
    <glyph glyph-name="Idieresis" unicode="&#xcf;" 
d="M403 0h-267v73h90v554h-90v73h267v-73h-90v-554h90v-73zM413 735h-85v80h85v-80zM213 735h-85v80h85v-80z" />
    <glyph glyph-name="Igrave" unicode="&#xcc;" 
d="M351 726h-83l-132 115h111zM406 0h-267v73h90v554h-90v73h267v-73h-90v-554h90v-73z" />
    <glyph glyph-name="Ntilde" unicode="&#xd1;" 
d="M460 0h-143l-157 626v-626h-81v700h142l158 -626v626h81v-700zM133 735v72s58 33 77 33h15c24 0 88 -40 111 -40h10c12 0 67 36 67 36v-72s-51 -33 -68 -33h-15c-13 0 -90 40 -110 40h-10c-14 0 -77 -36 -77 -36z" />
    <glyph glyph-name="Oacute" unicode="&#xd3;" 
d="M267 726h-83l104 115h111zM470 170c0 -114 -65 -170 -180 -170h-40c-115 0 -180 56 -180 170v360c0 114 65 170 180 170h40c115 0 180 -56 180 -170v-360zM383 151v398c0 40 -33 75 -83 75h-60c-50 0 -83 -35 -83 -75v-398c0 -40 33 -75 83 -75h60c50 0 83 35 83 75z" />
    <glyph glyph-name="Ocircumflex" unicode="&#xd4;" 
d="M426 730h-97l-60 64l-60 -64h-96l110 115h92zM470 170c0 -114 -65 -170 -180 -170h-40c-115 0 -180 56 -180 170v360c0 114 65 170 180 170h40c115 0 180 -56 180 -170v-360zM383 151v398c0 40 -33 75 -83 75h-60c-50 0 -83 -35 -83 -75v-398c0 -40 33 -75 83 -75h60
c50 0 83 35 83 75z" />
    <glyph glyph-name="Odieresis" unicode="&#xd6;" 
d="M416 735h-85v80h85v-80zM216 735h-85v80h85v-80zM470 170c0 -114 -65 -170 -180 -170h-40c-115 0 -180 56 -180 170v360c0 114 65 170 180 170h40c115 0 180 -56 180 -170v-360zM383 151v398c0 40 -33 75 -83 75h-60c-50 0 -83 -35 -83 -75v-398c0 -40 33 -75 83 -75h60
c50 0 83 35 83 75z" />
    <glyph glyph-name="Ograve" unicode="&#xd2;" 
d="M351 726h-83l-132 115h111zM470 170c0 -114 -65 -170 -180 -170h-40c-115 0 -180 56 -180 170v360c0 114 65 170 180 170h40c115 0 180 -56 180 -170v-360zM383 151v398c0 40 -33 75 -83 75h-60c-50 0 -83 -35 -83 -75v-398c0 -40 33 -75 83 -75h60c50 0 83 35 83 75z
" />
    <glyph glyph-name="Otilde" unicode="&#xd5;" 
d="M470 170c0 -114 -65 -170 -180 -170h-40c-115 0 -180 56 -180 170v360c0 114 65 170 180 170h40c115 0 180 -56 180 -170v-360zM383 151v398c0 40 -33 75 -83 75h-60c-50 0 -83 -35 -83 -75v-398c0 -40 33 -75 83 -75h60c50 0 83 35 83 75zM132 735v72s58 33 77 33h15
c24 0 88 -40 111 -40h10c12 0 67 36 67 36v-72s-51 -33 -68 -33h-15c-13 0 -90 40 -110 40h-10c-14 0 -77 -36 -77 -36z" />
    <glyph glyph-name="Scaron" unicode="&#x160;" 
d="M126 845h97l60 -67l60 67h96l-112 -115h-88zM439 170c0 -114 -65 -170 -180 -170h-142v76h152c50 0 83 35 83 75v104c0 38 -19 67 -62 67h-30c-96 0 -160 56 -160 170v38c0 114 65 170 180 170h143v-76h-153c-50 0 -83 -35 -83 -75v-76c0 -40 28 -72 72 -72h30
c92 0 150 -51 150 -165v-66z" />
    <glyph glyph-name="Uacute" unicode="&#xda;" 
d="M294 726h-83l104 115h111zM462 170c0 -114 -65 -170 -180 -170h-25c-115 0 -180 56 -180 170v530h87v-549c0 -40 33 -75 83 -75h45c50 0 83 35 83 75v549h87v-530z" />
    <glyph glyph-name="Ucircumflex" unicode="&#xdb;" 
d="M431 730h-97l-60 64l-60 -64h-96l110 115h92zM462 170c0 -114 -65 -170 -180 -170h-25c-115 0 -180 56 -180 170v530h87v-549c0 -40 33 -75 83 -75h45c50 0 83 35 83 75v549h87v-530z" />
    <glyph glyph-name="Udieresis" unicode="&#xdc;" 
d="M414 735h-85v80h85v-80zM214 735h-85v80h85v-80zM462 170c0 -114 -65 -170 -180 -170h-25c-115 0 -180 56 -180 170v530h87v-549c0 -40 33 -75 83 -75h45c50 0 83 35 83 75v549h87v-530z" />
    <glyph glyph-name="Ugrave" unicode="&#xd9;" 
d="M331 726h-83l-132 115h111zM462 170c0 -114 -65 -170 -180 -170h-25c-115 0 -180 56 -180 170v530h87v-549c0 -40 33 -75 83 -75h45c50 0 83 35 83 75v549h87v-530z" />
    <glyph glyph-name="Yacute" unicode="&#xdd;" 
d="M269 726h-83l104 115h111zM495 700l-182 -375v-325h-90v325l-179 375h96l132 -291l132 291h91z" />
    <glyph glyph-name="Ydieresis" unicode="&#x178;" 
d="M495 700l-182 -375v-325h-90v325l-179 375h96l132 -291l132 291h91zM413 735h-85v80h85v-80zM213 735h-85v80h85v-80z" />
    <glyph glyph-name="Zcaron" unicode="&#x17d;" 
d="M129 845h97l60 -67l60 67h96l-112 -115h-88zM451 612l-273 -538h263v-74h-354v88l274 538h-251v74h341v-88z" />
    <glyph glyph-name="aacute" unicode="&#xe1;" 
d="M472 0h-55c-18 0 -40 12 -55 30c-14 -18 -35 -30 -61 -30h-89c-100 0 -145 35 -145 135v20c0 100 46 155 146 155h124v50c0 40 -25 65 -75 65h-155v75h145c115 0 170 -46 170 -160v-240c0 -20 13 -30 50 -30v-70zM291 75c46 0 46 30 46 50v110h-125
c-35 0 -60 -25 -60 -60v-50c0 -35 15 -50 50 -50h89zM288 580h-86l104 135h104z" />
    <glyph glyph-name="acircumflex" unicode="&#xe2;" 
d="M472 0h-55c-18 0 -40 12 -55 30c-14 -18 -35 -30 -61 -30h-89c-100 0 -145 35 -145 135v20c0 100 46 155 146 155h124v50c0 40 -25 65 -75 65h-155v75h145c115 0 170 -46 170 -160v-240c0 -20 13 -30 50 -30v-70zM291 75c46 0 46 30 46 50v110h-125
c-35 0 -60 -25 -60 -60v-50c0 -35 15 -50 50 -50h89zM411 580h-97l-60 75l-60 -75h-96l112 135h88z" />
    <glyph glyph-name="adieresis" unicode="&#xe4;" 
d="M472 0h-55c-18 0 -40 12 -55 30c-14 -18 -35 -30 -61 -30h-89c-100 0 -145 35 -145 135v20c0 100 46 155 146 155h124v50c0 40 -25 65 -75 65h-155v75h145c115 0 170 -46 170 -160v-240c0 -20 13 -30 50 -30v-70zM291 75c46 0 46 30 46 50v110h-125
c-35 0 -60 -25 -60 -60v-50c0 -35 15 -50 50 -50h89zM391 595h-85v80h85v-80zM191 595h-85v80h85v-80z" />
    <glyph glyph-name="agrave" unicode="&#xe0;" 
d="M472 0h-55c-18 0 -40 12 -55 30c-14 -18 -35 -30 -61 -30h-89c-100 0 -145 35 -145 135v20c0 100 46 155 146 155h124v50c0 40 -25 65 -75 65h-155v75h145c115 0 170 -46 170 -160v-240c0 -20 13 -30 50 -30v-70zM291 75c46 0 46 30 46 50v110h-125
c-35 0 -60 -25 -60 -60v-50c0 -35 15 -50 50 -50h89zM342 580h-86l-122 135h104z" />
    <glyph glyph-name="aring" unicode="&#xe5;" 
d="M344 633c0 -57 -39 -85 -89 -85h-6c-50 0 -89 28 -89 85v29c0 58 39 85 89 85h6c50 0 89 -27 89 -85v-29zM287 632v31c0 20 -7 38 -32 38h-6c-25 0 -34 -18 -34 -38v-31c0 -20 9 -38 34 -38h6c25 0 32 18 32 38zM472 0h-55c-18 0 -40 12 -55 30c-14 -18 -35 -30 -61 -30
h-89c-100 0 -145 35 -145 135v20c0 100 46 155 146 155h124v50c0 40 -25 65 -75 65h-155v75h145c115 0 170 -46 170 -160v-240c0 -20 13 -30 50 -30v-70zM291 75c46 0 46 30 46 50v110h-125c-35 0 -60 -25 -60 -60v-50c0 -35 15 -50 50 -50h89z" />
    <glyph glyph-name="atilde" unicode="&#xe3;" 
d="M472 0h-55c-18 0 -40 12 -55 30c-14 -18 -35 -30 -61 -30h-89c-100 0 -145 35 -145 135v20c0 100 46 155 146 155h124v50c0 40 -25 65 -75 65h-155v75h145c115 0 170 -46 170 -160v-240c0 -20 13 -30 50 -30v-70zM291 75c46 0 46 30 46 50v110h-125
c-35 0 -60 -25 -60 -60v-50c0 -35 15 -50 50 -50h89zM106 595v72s58 33 77 33h15c24 0 88 -40 111 -40h10c12 0 67 36 67 36v-72s-51 -33 -68 -33h-15c-13 0 -90 40 -110 40h-10c-14 0 -77 -36 -77 -36z" />
    <glyph glyph-name="ccedilla" unicode="&#xe7;" 
d="M311 -200h-85v64h67c21 0 33 9 33 31c0 23 -12 29 -35 29h-49v79c-82 12 -122 59 -122 157v180c0 114 55 160 170 160h129v-75h-139c-50 0 -75 -25 -75 -65v-220c0 -40 25 -65 75 -65h139v-75h-107v-21c58 0 87 -15 87 -84c0 -88 -53 -95 -88 -95z" />
    <glyph glyph-name="eacute" unicode="&#xe9;" 
d="M413 0h-149c-115 0 -170 45 -170 160v180c0 114 45 160 160 160h47c96 0 144 -55 144 -155v-130h-266v-75c0 -40 25 -65 75 -65h159v-75zM179 360v-70h183v75c0 35 -25 60 -60 60h-58c-50 0 -65 -25 -65 -65zM304 580h-86l104 135h104z" />
    <glyph glyph-name="ecircumflex" unicode="&#xea;" 
d="M413 0h-149c-115 0 -170 45 -170 160v180c0 114 45 160 160 160h47c96 0 144 -55 144 -155v-130h-266v-75c0 -40 25 -65 75 -65h159v-75zM179 360v-70h183v75c0 35 -25 60 -60 60h-58c-50 0 -65 -25 -65 -65zM428 580h-97l-60 75l-60 -75h-96l112 135h88z" />
    <glyph glyph-name="edieresis" unicode="&#xeb;" 
d="M413 0h-149c-115 0 -170 45 -170 160v180c0 114 45 160 160 160h47c96 0 144 -55 144 -155v-130h-266v-75c0 -40 25 -65 75 -65h159v-75zM179 360v-70h183v75c0 35 -25 60 -60 60h-58c-50 0 -65 -25 -65 -65zM418 595h-85v80h85v-80zM218 595h-85v80h85v-80z" />
    <glyph glyph-name="egrave" unicode="&#xe8;" 
d="M413 0h-149c-115 0 -170 45 -170 160v180c0 114 45 160 160 160h47c96 0 144 -55 144 -155v-130h-266v-75c0 -40 25 -65 75 -65h159v-75zM179 360v-70h183v75c0 35 -25 60 -60 60h-58c-50 0 -65 -25 -65 -65zM365 580h-86l-122 135h104z" />
    <glyph glyph-name="iacute" unicode="&#xed;" 
d="M291 580h-86l104 135h104zM460 0h-233v425h-147v75h232v-425h148v-75z" />
    <glyph glyph-name="icircumflex" unicode="&#xee;" 
d="M430 580h-97l-60 75l-60 -75h-96l112 135h88zM460 0h-233v425h-147v75h232v-425h148v-75z" />
    <glyph glyph-name="idieresis" unicode="&#xef;" 
d="M413 595h-85v80h85v-80zM213 595h-85v80h85v-80zM460 0h-233v425h-147v75h232v-425h148v-75z" />
    <glyph glyph-name="igrave" unicode="&#xec;" 
d="M357 580h-86l-122 135h104zM460 0h-233v425h-147v75h232v-425h148v-75z" />
    <glyph glyph-name="ntilde" unicode="&#xf1;" 
d="M172 0h-85v500h80v-24c22 17 50 24 80 24h46c105 0 160 -45 160 -160v-340h-85v360c0 40 -25 65 -65 65h-66c-50 0 -65 -35 -65 -55v-370zM137 595v72s58 33 77 33h15c24 0 88 -40 111 -40h10c12 0 67 36 67 36v-72s-51 -33 -68 -33h-15c-13 0 -90 40 -110 40h-10
c-14 0 -77 -36 -77 -36z" />
    <glyph glyph-name="oacute" unicode="&#xf3;" 
d="M456 160c0 -114 -55 -160 -170 -160h-33c-115 0 -170 46 -170 160v180c0 114 55 160 170 160h33c115 0 170 -46 170 -160v-180zM371 140v220c0 40 -25 65 -75 65h-53c-50 0 -75 -25 -75 -65v-220c0 -40 25 -65 75 -65h53c50 0 75 25 75 65zM255 580h-86l104 135h104z" />
    <glyph glyph-name="ocircumflex" unicode="&#xf4;" 
d="M456 160c0 -114 -55 -160 -170 -160h-33c-115 0 -170 46 -170 160v180c0 114 55 160 170 160h33c115 0 170 -46 170 -160v-180zM371 140v220c0 40 -25 65 -75 65h-53c-50 0 -75 -25 -75 -65v-220c0 -40 25 -65 75 -65h53c50 0 75 25 75 65zM427 580h-97l-60 75l-60 -75
h-96l112 135h88z" />
    <glyph glyph-name="odieresis" unicode="&#xf6;" 
d="M456 160c0 -114 -55 -160 -170 -160h-33c-115 0 -170 46 -170 160v180c0 114 55 160 170 160h33c115 0 170 -46 170 -160v-180zM371 140v220c0 40 -25 65 -75 65h-53c-50 0 -75 -25 -75 -65v-220c0 -40 25 -65 75 -65h53c50 0 75 25 75 65zM413 595h-85v80h85v-80z
M213 595h-85v80h85v-80z" />
    <glyph glyph-name="ograve" unicode="&#xf2;" 
d="M452 160c0 -114 -55 -160 -170 -160h-33c-115 0 -170 46 -170 160v180c0 114 55 160 170 160h33c115 0 170 -46 170 -160v-180zM367 140v220c0 40 -25 65 -75 65h-53c-50 0 -75 -25 -75 -65v-220c0 -40 25 -65 75 -65h53c50 0 75 25 75 65zM365 580h-86l-122 135h104z
" />
    <glyph glyph-name="otilde" unicode="&#xf5;" 
d="M456 160c0 -114 -55 -160 -170 -160h-33c-115 0 -170 46 -170 160v180c0 114 55 160 170 160h33c115 0 170 -46 170 -160v-180zM371 140v220c0 40 -25 65 -75 65h-53c-50 0 -75 -25 -75 -65v-220c0 -40 25 -65 75 -65h53c50 0 75 25 75 65zM130 595v72s58 33 77 33h15
c24 0 88 -40 111 -40h10c12 0 67 36 67 36v-72s-51 -33 -68 -33h-15c-13 0 -90 40 -110 40h-10c-14 0 -77 -36 -77 -36z" />
    <glyph glyph-name="scaron" unicode="&#x161;" 
d="M415 125c0 -86 -55 -125 -150 -125h-149v75h159c35 0 55 15 55 45v53c0 30 -15 45 -43 45h-37c-92 0 -139 37 -139 127v29c0 93 55 126 150 126h134v-75h-144c-32 0 -55 -15 -55 -45v-36c0 -32 23 -45 48 -45h34c89 0 137 -44 137 -129v-45zM119 714h97l60 -75l60 75h96
l-112 -135h-88z" />
    <glyph glyph-name="uacute" unicode="&#xfa;" 
d="M447 0h-80v23c-23 -16 -50 -23 -80 -23h-34c-105 0 -160 45 -160 160v340h85v-360c0 -40 25 -65 65 -65h54c47 0 63 31 65 52v373h85v-500zM303 580h-86l104 135h104z" />
    <glyph glyph-name="ucircumflex" unicode="&#xfb;" 
d="M447 0h-80v23c-23 -16 -50 -23 -80 -23h-34c-105 0 -160 45 -160 160v340h85v-360c0 -40 25 -65 65 -65h54c47 0 63 31 65 52v373h85v-500zM426 580h-97l-60 75l-60 -75h-96l112 135h88z" />
    <glyph glyph-name="udieresis" unicode="&#xfc;" 
d="M447 0h-80v23c-23 -16 -50 -23 -80 -23h-34c-105 0 -160 45 -160 160v340h85v-360c0 -40 25 -65 65 -65h54c47 0 63 31 65 52v373h85v-500zM410 595h-85v80h85v-80zM210 595h-85v80h85v-80z" />
    <glyph glyph-name="ugrave" unicode="&#xf9;" 
d="M447 0h-80v23c-23 -16 -50 -23 -80 -23h-34c-105 0 -160 45 -160 160v340h85v-360c0 -40 25 -65 65 -65h54c47 0 63 31 65 52v373h85v-500zM343 580h-86l-122 135h104z" />
    <glyph glyph-name="yacute" unicode="&#xfd;" 
d="M138 -95h42c31 0 46 10 54 40l14 55h-20l-165 500h92l125 -419l109 419h87l-155 -554c-28 -106 -71 -116 -135 -116h-48v75zM281 580h-86l104 135h104z" />
    <glyph glyph-name="ydieresis" unicode="&#xff;" 
d="M138 -95h42c31 0 46 10 54 40l14 55h-20l-165 500h92l125 -419l109 419h87l-155 -554c-28 -106 -71 -116 -135 -116h-48v75zM412 595h-85v80h85v-80zM212 595h-85v80h85v-80z" />
    <glyph glyph-name="zcaron" unicode="&#x17e;" 
d="M495 411l-232 -337h222v-74h-318v80l234 346h-214v74h308v-89zM189 714h97l60 -75l60 75h96l-112 -135h-88z" />
    <glyph glyph-name=".null" horiz-adv-x="0" 
 />
    <glyph glyph-name=".null" horiz-adv-x="0" 
 />
    <glyph glyph-name="CR" unicode="&#xd;" 
 />
    <glyph glyph-name="uni00A0" unicode="&#xa0;" 
 />
    <glyph glyph-name="uni00AD" unicode="&#xad;" 
d="M432 275h-325v75h325v-75z" />
    <glyph glyph-name="uni02C9" unicode="&#x2c9;" 
d="M397 605h-255v70h255v-70z" />
    <glyph glyph-name="uni03BC" unicode="&#x3bc;" 
d="M188 -170h-85v670h85v-360c0 -40 25 -65 65 -65h34c50 0 65 35 65 55v370h85v-500h-80v23c-23 -16 -50 -23 -80 -23h-14c-29 0 -54 3 -75 10v-180z" />
    <glyph glyph-name="pi" unicode="&#x3c0;" 
d="M212 0h-85v427h-79v73h444v-73h-90v-322c0 -21 9 -30 35 -30h15v-75h-50c-39 0 -85 24 -85 100v327h-105v-427z" />
    <glyph glyph-name="Euro" unicode="&#x20ac;" 
d="M415 480v-73h-169v-97h169v-73h-169v-86c0 -40 33 -75 83 -75h122v-76h-112c-115 0 -180 56 -180 170v67h-70v73h70v97h-70v73h70v50c0 114 65 170 180 170h112v-76h-122c-50 0 -83 -35 -83 -75v-69h169z" />
    <glyph glyph-name="Omega" unicode="&#x2126;" 
d="M495 0h-183v76c37 0 65 35 65 75v398c0 40 -33 75 -83 75h-54c-50 0 -83 -35 -83 -75v-398c0 -40 31 -75 71 -75v-76h-183v76h49c-15 27 -24 59 -24 94v360c0 114 65 170 180 170h34c115 0 180 -56 180 -170v-360c0 -35 -8 -67 -23 -94h54v-76z" />
    <glyph glyph-name="partialdiff" unicode="&#x2202;" 
d="M96 170v110c0 114 55 160 168 160h98v109c0 40 -33 75 -83 75h-135v76h125c115 0 178 -56 178 -170v-360c0 -114 -73 -170 -158 -170h-35c-85 0 -158 56 -158 170zM362 365h-108c-50 0 -73 -26 -73 -66v-148c0 -40 28 -76 78 -76h25c50 0 78 36 78 76v214z" />
    <glyph glyph-name="Delta" unicode="&#x2206;" 
d="M490 0h-440l168 700h111zM382 75l-109 550l-115 -550h224z" />
    <glyph glyph-name="product" unicode="&#x220f;" 
d="M209 0h-87v625h-79v75h454v-75h-91v-520c0 -21 7 -30 33 -30h15v-75h-50c-39 0 -85 24 -85 100v525h-110v-625z" />
    <glyph glyph-name="summation" unicode="&#x2211;" 
d="M462 -170h-385v94l168 343l-155 338v95h361v-75h-273l162 -358l-177 -363h299v-74z" />
    <glyph glyph-name="uni2215" unicode="&#x2215;" 
d="M470 810l-320 -910h-80l320 910h80z" />
    <glyph glyph-name="uni2219" unicode="&#x2219;" 
d="M320 260h-100v100h100v-100z" />
    <glyph glyph-name="radical" unicode="&#x221a;" 
d="M517 745h-106l-165 -745h-125l-99 392h89l72 -311l157 739h177v-75z" />
    <glyph glyph-name="infinity" unicode="&#x221e;" 
d="M270 194c-24 -34 -53 -53 -106 -53h-10c-110 0 -141 57 -141 157v20c0 100 31 157 141 157h10c53 0 84 -19 108 -53c24 34 51 53 104 53h10c110 0 141 -57 141 -157v-15c0 -100 -31 -162 -141 -162h-10c-53 0 -82 19 -106 53zM448 282v60c-2 45 -19 63 -67 63h-7
c-43 0 -61 -28 -63 -65v-58c0 -40 18 -71 63 -71h7c51 0 67 21 67 71zM92 334v-60c2 -45 19 -63 67 -63h7c43 0 61 28 63 65v58c0 40 -18 71 -63 71h-7c-51 0 -67 -21 -67 -71z" />
    <glyph glyph-name="uni2224" unicode="&#x2224;" 
d="M320 260h-100v100h100v-100z" />
    <glyph glyph-name="logicaland" unicode="&#x2227;" 
d="M320 260h-100v100h100v-100z" />
    <glyph glyph-name="integral" unicode="&#x222b;" 
d="M69 -160h121c22 0 35 13 35 30v840c0 70 44 110 104 110h142v-75h-126c-22 0 -35 -13 -35 -30v-840c0 -70 -44 -110 -104 -110h-137v75z" />
    <glyph glyph-name="approxequal" unicode="&#x2248;" 
d="M100 343v80s78 35 97 35h15c24 0 108 -40 131 -40h10c12 0 87 36 87 36v-80s-71 -35 -88 -35h-15c-13 0 -110 40 -130 40h-10c-14 0 -97 -36 -97 -36zM100 174v80s78 35 97 35h15c24 0 108 -40 131 -40h10c12 0 87 36 87 36v-80s-71 -35 -88 -35h-15
c-13 0 -110 40 -130 40h-10c-14 0 -97 -36 -97 -36z" />
    <glyph glyph-name="notequal" unicode="&#x2260;" 
d="M460 375h-111l-78 -125h189v-75h-235l-65 -105h-80l65 105h-65v75h111l78 125h-189v75h235l65 105h80l-65 -105h65v-75z" />
    <glyph glyph-name="lessequal" unicode="&#x2264;" 
d="M460 125l-380 155v105l380 179v-92l-308 -136l308 -117v-94zM460 0h-380v75h380v-75z" />
    <glyph glyph-name="greaterequal" unicode="&#x2265;" 
d="M460 280l-380 -155v94l308 117l-308 136v92l380 -179v-105zM460 0h-380v75h380v-75z" />
    <glyph glyph-name="dotmath" unicode="&#x22c5;" 
d="M320 260h-100v100h100v-100z" />
    <glyph glyph-name="uni25AF" unicode="&#x25af;" 
d="M84 0v700h372v-700h-372zM159 72h222v556h-222v-556z" />
    <glyph glyph-name="lozenge" unicode="&#x25ca;" 
d="M465 350l-140 -350h-112l-138 350l140 350h110zM378 350l-108 280l-108 -280l108 -280z" />
  </font>
</defs>
</svg>
